<svg width="189" height="40" viewBox="0 0 189 40" fill="none" xmlns="http://www.w3.org/2000/svg">
<g filter="url(#filter0_di_10360_169244)">
<path d="M2 9C2 4.58172 5.58172 1 10 1L179 1C183.418 1 187 4.58172 187 9V29C187 33.4183 183.418 37 179 37H10C5.58172 37 2 33.4183 2 29V9Z" fill="#8040BF"/>
<path d="M26.8211 11L23.6422 12.7684V15.6314L21.0689 14.1992H21.0674L18 15.9054L18 25.2938L21.066 27H21.0674L24.3592 25.1681V22.4308L26.8211 23.7994L30 22.0311L30 12.7684L26.8211 11ZM18.7185 16.3051L21.066 15H21.0674L23.6408 16.4308L23.6408 21.2316L18.7185 18.4944L18.7185 16.3051ZM23.6408 24.7684L21.066 26.1992L18.7185 24.8941V19.2938L23.6408 22.0311V24.7684V24.7684ZM29.2815 21.6299L26.8211 22.9986L24.3607 21.6314L24.3607 16.8305L29.283 19.5678V21.6299H29.2815ZM29.2815 18.7684L24.3592 16.0311V13.1681L26.8211 11.7994L29.2815 13.1681V18.7684Z" fill="white"/>
<path d="M44.4148 24.5H41.1186V14.3182H44.5192C45.5168 14.3182 46.3736 14.522 47.0895 14.9297C47.8054 15.334 48.3539 15.9157 48.7351 16.6747C49.1196 17.4304 49.3118 18.3369 49.3118 19.3942C49.3118 20.4548 49.1179 21.3662 48.7301 22.1286C48.3456 22.8909 47.7888 23.4775 47.0597 23.8885C46.3305 24.2962 45.4489 24.5 44.4148 24.5ZM42.6548 23.1577H44.3303C45.1058 23.1577 45.7505 23.0118 46.2642 22.7202C46.7779 22.4252 47.1624 21.9993 47.4176 21.4425C47.6728 20.8823 47.8004 20.1996 47.8004 19.3942C47.8004 18.5954 47.6728 17.9176 47.4176 17.3608C47.1657 16.804 46.7895 16.3814 46.2891 16.093C45.7886 15.8047 45.1671 15.6605 44.4247 15.6605H42.6548V23.1577ZM54.194 24.6541C53.4416 24.6541 52.7937 24.4934 52.2501 24.1719C51.7099 23.8471 51.2922 23.3913 50.9973 22.8047C50.7056 22.2147 50.5598 21.5237 50.5598 20.7315C50.5598 19.9493 50.7056 19.2599 50.9973 18.6634C51.2922 18.0668 51.7032 17.6011 52.2302 17.2663C52.7605 16.9316 53.3803 16.7642 54.0896 16.7642C54.5205 16.7642 54.9381 16.8355 55.3424 16.978C55.7468 17.1205 56.1097 17.3442 56.4312 17.6491C56.7527 17.9541 57.0063 18.3501 57.1919 18.8374C57.3775 19.3213 57.4703 19.9096 57.4703 20.6023V21.1293H51.4V20.0156H56.0136C56.0136 19.6245 55.9341 19.2782 55.775 18.9766C55.6159 18.6716 55.3922 18.4313 55.1038 18.2557C54.8188 18.08 54.484 17.9922 54.0995 17.9922C53.6819 17.9922 53.3173 18.0949 53.0058 18.3004C52.6975 18.5026 52.4589 18.7678 52.2899 19.0959C52.1242 19.4207 52.0413 19.7737 52.0413 20.1548V21.0249C52.0413 21.5353 52.1308 21.9695 52.3098 22.3274C52.4921 22.6854 52.7456 22.9588 53.0704 23.1477C53.3952 23.3333 53.7747 23.4261 54.2089 23.4261C54.4906 23.4261 54.7475 23.3864 54.9795 23.3068C55.2115 23.224 55.412 23.1013 55.5811 22.9389C55.7501 22.7765 55.8794 22.576 55.9689 22.3374L57.3758 22.5909C57.2631 23.0052 57.0609 23.3681 56.7693 23.6797C56.4809 23.9879 56.118 24.2282 55.6805 24.4006C55.2463 24.5696 54.7508 24.6541 54.194 24.6541ZM58.9196 27.3636V16.8636H60.3713V18.1016H60.4956C60.5818 17.9425 60.7061 17.7585 60.8685 17.5497C61.0309 17.3409 61.2563 17.1586 61.5446 17.0028C61.833 16.8438 62.2141 16.7642 62.6881 16.7642C63.3045 16.7642 63.8547 16.92 64.3386 17.2315C64.8225 17.5431 65.202 17.9922 65.4771 18.5788C65.7555 19.1655 65.8947 19.8714 65.8947 20.6967C65.8947 21.522 65.7572 22.2296 65.4821 22.8196C65.207 23.4062 64.8292 23.8587 64.3486 24.1768C63.868 24.4917 63.3195 24.6491 62.703 24.6491C62.239 24.6491 61.8595 24.5713 61.5645 24.4155C61.2728 24.2597 61.0441 24.0774 60.8784 23.8686C60.7127 23.6598 60.5851 23.4742 60.4956 23.3118H60.4061V27.3636H58.9196ZM60.3763 20.6818C60.3763 21.2187 60.4542 21.6894 60.6099 22.0938C60.7657 22.4981 60.9911 22.8146 61.2861 23.0433C61.5811 23.2687 61.9423 23.3814 62.3699 23.3814C62.814 23.3814 63.1852 23.2637 63.4835 23.0284C63.7818 22.7898 64.0072 22.4666 64.1597 22.0589C64.3154 21.6513 64.3933 21.1922 64.3933 20.6818C64.3933 20.178 64.3171 19.7256 64.1646 19.3246C64.0155 18.9235 63.7901 18.607 63.4885 18.375C63.1902 18.143 62.8173 18.027 62.3699 18.027C61.939 18.027 61.5744 18.138 61.2761 18.3601C60.9812 18.5821 60.7574 18.892 60.605 19.2898C60.4525 19.6875 60.3763 20.1515 60.3763 20.6818ZM68.8467 14.3182V24.5H67.3602V14.3182H68.8467ZM73.8632 24.6541C73.1473 24.6541 72.5225 24.4901 71.9889 24.1619C71.4553 23.8338 71.041 23.3748 70.746 22.7848C70.451 22.1948 70.3035 21.5054 70.3035 20.7166C70.3035 19.9245 70.451 19.2318 70.746 18.6385C71.041 18.0452 71.4553 17.5845 71.9889 17.2564C72.5225 16.9283 73.1473 16.7642 73.8632 16.7642C74.5791 16.7642 75.2038 16.9283 75.7375 17.2564C76.2711 17.5845 76.6854 18.0452 76.9804 18.6385C77.2753 19.2318 77.4228 19.9245 77.4228 20.7166C77.4228 21.5054 77.2753 22.1948 76.9804 22.7848C76.6854 23.3748 76.2711 23.8338 75.7375 24.1619C75.2038 24.4901 74.5791 24.6541 73.8632 24.6541ZM73.8681 23.4062C74.3322 23.4062 74.7166 23.2836 75.0216 23.0384C75.3265 22.7931 75.5519 22.4666 75.6977 22.0589C75.8468 21.6513 75.9214 21.2022 75.9214 20.7116C75.9214 20.2244 75.8468 19.777 75.6977 19.3693C75.5519 18.9583 75.3265 18.6286 75.0216 18.38C74.7166 18.1314 74.3322 18.0071 73.8681 18.0071C73.4008 18.0071 73.013 18.1314 72.7048 18.38C72.3999 18.6286 72.1728 18.9583 72.0237 19.3693C71.8779 19.777 71.8049 20.2244 71.8049 20.7116C71.8049 21.2022 71.8779 21.6513 72.0237 22.0589C72.1728 22.4666 72.3999 22.7931 72.7048 23.0384C73.013 23.2836 73.4008 23.4062 73.8681 23.4062ZM79.562 27.3636C79.3399 27.3636 79.1377 27.3454 78.9554 27.3089C78.7731 27.2758 78.6373 27.2393 78.5478 27.1996L78.9057 25.9815C79.1775 26.0545 79.4194 26.0859 79.6316 26.076C79.8437 26.0661 80.031 25.9865 80.1934 25.8374C80.3591 25.6882 80.5049 25.4446 80.6309 25.1065L80.8148 24.5994L78.0208 16.8636H79.6117L81.5456 22.7898H81.6252L83.5591 16.8636H85.155L82.008 25.5192C81.8622 25.9169 81.6766 26.2533 81.4512 26.5284C81.2258 26.8068 80.9573 27.0156 80.6458 27.1548C80.3342 27.294 79.973 27.3636 79.562 27.3636ZM89.8571 24.5V16.8636H91.3436V24.5H89.8571ZM90.6078 15.6854C90.3493 15.6854 90.1272 15.5992 89.9416 15.4268C89.7593 15.2512 89.6682 15.0424 89.6682 14.8004C89.6682 14.5552 89.7593 14.3464 89.9416 14.174C90.1272 13.9983 90.3493 13.9105 90.6078 13.9105C90.8663 13.9105 91.0867 13.9983 91.269 14.174C91.4546 14.3464 91.5474 14.5552 91.5474 14.8004C91.5474 15.0424 91.4546 15.2512 91.269 15.4268C91.0867 15.5992 90.8663 15.6854 90.6078 15.6854ZM94.6299 19.9659V24.5H93.1434V16.8636H94.5703V18.1065H94.6647C94.8404 17.7022 95.1155 17.3774 95.49 17.1321C95.8679 16.8868 96.3435 16.7642 96.9169 16.7642C97.4372 16.7642 97.893 16.8736 98.2841 17.0923C98.6752 17.3078 98.9784 17.6293 99.1939 18.0568C99.4093 18.4844 99.517 19.013 99.517 19.6428V24.5H98.0305V19.8217C98.0305 19.2682 97.8863 18.8357 97.598 18.5241C97.3096 18.2093 96.9136 18.0518 96.4098 18.0518C96.0651 18.0518 95.7585 18.1264 95.49 18.2756C95.2249 18.4247 95.0144 18.6435 94.8586 18.9318C94.7062 19.2169 94.6299 19.5616 94.6299 19.9659ZM105.755 27.3636C105.533 27.3636 105.331 27.3454 105.149 27.3089C104.967 27.2758 104.831 27.2393 104.741 27.1996L105.099 25.9815C105.371 26.0545 105.613 26.0859 105.825 26.076C106.037 26.0661 106.224 25.9865 106.387 25.8374C106.552 25.6882 106.698 25.4446 106.824 25.1065L107.008 24.5994L104.214 16.8636H105.805L107.739 22.7898H107.819L109.752 16.8636H111.348L108.201 25.5192C108.056 25.9169 107.87 26.2533 107.645 26.5284C107.419 26.8068 107.151 27.0156 106.839 27.1548C106.528 27.294 106.166 27.3636 105.755 27.3636ZM115.502 24.6541C114.786 24.6541 114.162 24.4901 113.628 24.1619C113.094 23.8338 112.68 23.3748 112.385 22.7848C112.09 22.1948 111.943 21.5054 111.943 20.7166C111.943 19.9245 112.09 19.2318 112.385 18.6385C112.68 18.0452 113.094 17.5845 113.628 17.2564C114.162 16.9283 114.786 16.7642 115.502 16.7642C116.218 16.7642 116.843 16.9283 117.377 17.2564C117.91 17.5845 118.324 18.0452 118.619 18.6385C118.914 19.2318 119.062 19.9245 119.062 20.7166C119.062 21.5054 118.914 22.1948 118.619 22.7848C118.324 23.3748 117.91 23.8338 117.377 24.1619C116.843 24.4901 116.218 24.6541 115.502 24.6541ZM115.507 23.4062C115.971 23.4062 116.356 23.2836 116.661 23.0384C116.966 22.7931 117.191 22.4666 117.337 22.0589C117.486 21.6513 117.56 21.2022 117.56 20.7116C117.56 20.2244 117.486 19.777 117.337 19.3693C117.191 18.9583 116.966 18.6286 116.661 18.38C116.356 18.1314 115.971 18.0071 115.507 18.0071C115.04 18.0071 114.652 18.1314 114.344 18.38C114.039 18.6286 113.812 18.9583 113.663 19.3693C113.517 19.777 113.444 20.2244 113.444 20.7116C113.444 21.2022 113.517 21.6513 113.663 22.0589C113.812 22.4666 114.039 22.7931 114.344 23.0384C114.652 23.2836 115.04 23.4062 115.507 23.4062ZM125.359 21.3331V16.8636H126.85V24.5H125.388V23.1776H125.309C125.133 23.5852 124.851 23.925 124.464 24.1967C124.079 24.4652 123.6 24.5994 123.027 24.5994C122.536 24.5994 122.102 24.4917 121.724 24.2763C121.35 24.0575 121.055 23.7344 120.839 23.3068C120.627 22.8793 120.521 22.3506 120.521 21.7209V16.8636H122.008V21.5419C122.008 22.0623 122.152 22.4766 122.44 22.7848C122.729 23.093 123.103 23.2472 123.564 23.2472C123.842 23.2472 124.119 23.1776 124.394 23.0384C124.672 22.8991 124.903 22.6887 125.085 22.407C125.271 22.1252 125.362 21.7673 125.359 21.3331ZM128.647 24.5V16.8636H130.084V18.0767H130.164C130.303 17.6657 130.548 17.3426 130.899 17.1072C131.254 16.8686 131.655 16.7493 132.103 16.7493C132.195 16.7493 132.305 16.7526 132.431 16.7592C132.56 16.7659 132.661 16.7741 132.734 16.7841V18.206C132.674 18.1894 132.568 18.1712 132.416 18.1513C132.263 18.1281 132.111 18.1165 131.958 18.1165C131.607 18.1165 131.294 18.1911 131.019 18.3402C130.747 18.486 130.532 18.6899 130.372 18.9517C130.213 19.2102 130.134 19.5052 130.134 19.8366V24.5H128.647ZM145.901 17.6293H144.35C144.291 17.2978 144.18 17.0062 144.017 16.7543C143.855 16.5024 143.656 16.2886 143.421 16.1129C143.185 15.9373 142.922 15.8047 142.63 15.7152C142.342 15.6257 142.035 15.581 141.71 15.581C141.124 15.581 140.598 15.7285 140.134 16.0234C139.674 16.3184 139.309 16.7509 139.041 17.321C138.776 17.8911 138.643 18.5871 138.643 19.4091C138.643 20.2377 138.776 20.937 139.041 21.5071C139.309 22.0772 139.675 22.508 140.139 22.7997C140.603 23.0914 141.125 23.2372 141.705 23.2372C142.027 23.2372 142.332 23.1941 142.62 23.108C142.912 23.0185 143.175 22.8875 143.411 22.7152C143.646 22.5429 143.845 22.3324 144.007 22.0838C144.173 21.8319 144.287 21.5436 144.35 21.2188L145.901 21.2237C145.819 21.7242 145.658 22.1849 145.419 22.6058C145.184 23.0234 144.881 23.3847 144.509 23.6896C144.142 23.9912 143.721 24.2249 143.247 24.3906C142.773 24.5563 142.256 24.6392 141.695 24.6392C140.814 24.6392 140.028 24.4304 139.339 24.0128C138.65 23.5919 138.106 22.9903 137.708 22.2081C137.314 21.4259 137.117 20.4929 137.117 19.4091C137.117 18.322 137.316 17.389 137.713 16.6101C138.111 15.8279 138.655 15.228 139.344 14.8104C140.033 14.3894 140.817 14.179 141.695 14.179C142.236 14.179 142.74 14.2569 143.207 14.4126C143.677 14.5651 144.1 14.7905 144.475 15.0888C144.849 15.3838 145.159 15.745 145.404 16.1726C145.65 16.5968 145.815 17.0824 145.901 17.6293ZM148.907 14.3182V24.5H147.42V14.3182H148.907ZM153.923 24.6541C153.207 24.6541 152.583 24.4901 152.049 24.1619C151.515 23.8338 151.101 23.3748 150.806 22.7848C150.511 22.1948 150.364 21.5054 150.364 20.7166C150.364 19.9245 150.511 19.2318 150.806 18.6385C151.101 18.0452 151.515 17.5845 152.049 17.2564C152.583 16.9283 153.207 16.7642 153.923 16.7642C154.639 16.7642 155.264 16.9283 155.798 17.2564C156.331 17.5845 156.746 18.0452 157.041 18.6385C157.335 19.2318 157.483 19.9245 157.483 20.7166C157.483 21.5054 157.335 22.1948 157.041 22.7848C156.746 23.3748 156.331 23.8338 155.798 24.1619C155.264 24.4901 154.639 24.6541 153.923 24.6541ZM153.928 23.4062C154.392 23.4062 154.777 23.2836 155.082 23.0384C155.387 22.7931 155.612 22.4666 155.758 22.0589C155.907 21.6513 155.982 21.2022 155.982 20.7116C155.982 20.2244 155.907 19.777 155.758 19.3693C155.612 18.9583 155.387 18.6286 155.082 18.38C154.777 18.1314 154.392 18.0071 153.928 18.0071C153.461 18.0071 153.073 18.1314 152.765 18.38C152.46 18.6286 152.233 18.9583 152.084 19.3693C151.938 19.777 151.865 20.2244 151.865 20.7116C151.865 21.2022 151.938 21.6513 152.084 22.0589C152.233 22.4666 152.46 22.7931 152.765 23.0384C153.073 23.2836 153.461 23.4062 153.928 23.4062ZM163.78 21.3331V16.8636H165.271V24.5H163.809V23.1776H163.73C163.554 23.5852 163.273 23.925 162.885 24.1967C162.5 24.4652 162.021 24.5994 161.448 24.5994C160.957 24.5994 160.523 24.4917 160.145 24.2763C159.771 24.0575 159.476 23.7344 159.26 23.3068C159.048 22.8793 158.942 22.3506 158.942 21.7209V16.8636H160.429V21.5419C160.429 22.0623 160.573 22.4766 160.861 22.7848C161.15 23.093 161.524 23.2472 161.985 23.2472C162.263 23.2472 162.54 23.1776 162.815 23.0384C163.094 22.8991 163.324 22.6887 163.506 22.407C163.692 22.1252 163.783 21.7673 163.78 21.3331ZM169.927 24.6491C169.311 24.6491 168.76 24.4917 168.277 24.1768C167.796 23.8587 167.418 23.4062 167.143 22.8196C166.871 22.2296 166.735 21.522 166.735 20.6967C166.735 19.8714 166.873 19.1655 167.148 18.5788C167.426 17.9922 167.808 17.5431 168.291 17.2315C168.775 16.92 169.324 16.7642 169.937 16.7642C170.411 16.7642 170.792 16.8438 171.081 17.0028C171.372 17.1586 171.598 17.3409 171.757 17.5497C171.919 17.7585 172.045 17.9425 172.134 18.1016H172.224V14.3182H173.71V24.5H172.259V23.3118H172.134C172.045 23.4742 171.916 23.6598 171.747 23.8686C171.581 24.0774 171.352 24.2597 171.061 24.4155C170.769 24.5713 170.391 24.6491 169.927 24.6491ZM170.255 23.3814C170.683 23.3814 171.044 23.2687 171.339 23.0433C171.637 22.8146 171.863 22.4981 172.015 22.0938C172.171 21.6894 172.249 21.2187 172.249 20.6818C172.249 20.1515 172.173 19.6875 172.02 19.2898C171.868 18.892 171.644 18.5821 171.349 18.3601C171.054 18.138 170.689 18.027 170.255 18.027C169.808 18.027 169.435 18.143 169.137 18.375C168.838 18.607 168.613 18.9235 168.46 19.3246C168.311 19.7256 168.237 20.178 168.237 20.6818C168.237 21.1922 168.313 21.6513 168.465 22.0589C168.618 22.4666 168.843 22.7898 169.142 23.0284C169.443 23.2637 169.814 23.3814 170.255 23.3814Z" fill="white"/>
</g>
<defs>
<filter id="filter0_di_10360_169244" x="0" y="0" width="189" height="40" filterUnits="userSpaceOnUse" color-interpolation-filters="sRGB">
<feFlood flood-opacity="0" result="BackgroundImageFix"/>
<feColorMatrix in="SourceAlpha" type="matrix" values="0 0 0 0 0 0 0 0 0 0 0 0 0 0 0 0 0 0 127 0" result="hardAlpha"/>
<feOffset dy="1"/>
<feGaussianBlur stdDeviation="1"/>
<feComposite in2="hardAlpha" operator="out"/>
<feColorMatrix type="matrix" values="0 0 0 0 0 0 0 0 0 0 0 0 0 0 0 0 0 0 0.08 0"/>
<feBlend mode="normal" in2="BackgroundImageFix" result="effect1_dropShadow_10360_169244"/>
<feBlend mode="normal" in="SourceGraphic" in2="effect1_dropShadow_10360_169244" result="shape"/>
<feColorMatrix in="SourceAlpha" type="matrix" values="0 0 0 0 0 0 0 0 0 0 0 0 0 0 0 0 0 0 127 0" result="hardAlpha"/>
<feMorphology radius="2" operator="erode" in="SourceAlpha" result="effect2_innerShadow_10360_169244"/>
<feOffset/>
<feComposite in2="hardAlpha" operator="arithmetic" k2="-1" k3="1"/>
<feColorMatrix type="matrix" values="0 0 0 0 1 0 0 0 0 1 0 0 0 0 1 0 0 0 0.12 0"/>
<feBlend mode="normal" in2="shape" result="effect2_innerShadow_10360_169244"/>
</filter>
</defs>
</svg>
