<svg width="32" height="32" viewBox="0 0 32 32" fill="none" xmlns="http://www.w3.org/2000/svg">
<path d="M9.89245 15.4522C9.89245 15.797 9.92745 16.077 9.99395 16.2835C10.0674 16.4882 10.1619 16.7122 10.2914 16.9555C10.3328 17.0197 10.3552 17.0943 10.3562 17.1707C10.3562 17.2635 10.3002 17.358 10.1812 17.4507L9.5932 17.8427C9.52261 17.8937 9.43867 17.9229 9.3517 17.9267C9.2572 17.9267 9.16445 17.8812 9.0717 17.7972C8.94592 17.6619 8.8334 17.5148 8.7357 17.358C8.63159 17.1784 8.53525 16.9945 8.44695 16.8067C7.7207 17.666 6.80895 18.0965 5.70995 18.0965C4.9277 18.0965 4.30295 17.8707 3.84795 17.4227C3.3912 16.9747 3.15845 16.3762 3.15845 15.629C3.15845 14.8345 3.43845 14.1905 4.00545 13.704C4.5742 13.2175 5.32845 12.976 6.28745 12.976C6.60245 12.976 6.9297 13.004 7.27445 13.0495C7.6192 13.0967 7.97445 13.172 8.34545 13.256V12.5735C8.34545 11.863 8.1967 11.3677 7.90795 11.079C7.61045 10.7885 7.10645 10.6485 6.38895 10.6485C6.06345 10.6485 5.7292 10.687 5.38445 10.771C5.04192 10.8525 4.70565 10.9583 4.3782 11.0877C4.27248 11.1356 4.16375 11.1765 4.0527 11.2102C4.00458 11.2261 3.95455 11.2355 3.90395 11.2382C3.7727 11.2382 3.70795 11.1437 3.70795 10.9477V10.4892C3.70795 10.3405 3.72545 10.2267 3.7727 10.1637C3.84322 10.0779 3.93321 10.0101 4.0352 9.96598C4.35895 9.79798 4.75095 9.65798 5.2077 9.54598C5.6627 9.42348 6.14745 9.36923 6.6602 9.36923C7.76795 9.36923 8.5782 9.62123 9.0997 10.1252C9.61245 10.6292 9.8732 11.3957 9.8732 12.4247V15.4522H9.8907H9.89245ZM6.1107 16.8715C6.41695 16.8715 6.7337 16.8155 7.0697 16.7035C7.40395 16.5915 7.7032 16.385 7.95345 16.105C8.10351 15.9331 8.2119 15.7288 8.2702 15.5082C8.3262 15.2825 8.3647 15.013 8.3647 14.6945V14.3025C8.08205 14.2339 7.79576 14.1813 7.5072 14.145C7.21703 14.1074 6.92479 14.0882 6.6322 14.0872C6.00745 14.0872 5.5507 14.2097 5.24445 14.4617C4.93645 14.7137 4.78945 15.069 4.78945 15.5362C4.78945 15.9737 4.8997 16.301 5.13245 16.5267C5.35645 16.7595 5.68195 16.8715 6.1107 16.8715ZM13.5884 17.8812C13.4204 17.8812 13.3084 17.8532 13.2349 17.7867C13.1597 17.7307 13.0949 17.6012 13.0389 17.4227L10.8514 10.2005C10.8083 10.0794 10.7795 9.95374 10.7657 9.82598C10.7657 9.67723 10.8409 9.59323 10.9897 9.59323H11.9032C12.0782 9.59323 12.2007 9.62123 12.2654 9.68598C12.3407 9.74198 12.3967 9.87323 12.4527 10.05L14.0172 16.2362L15.4697 10.05C15.5152 9.86448 15.5712 9.74198 15.6447 9.68598C15.757 9.6172 15.8878 9.5848 16.0192 9.59323H16.7629C16.9414 9.59323 17.0604 9.62123 17.1357 9.68598C17.2109 9.74198 17.2757 9.87323 17.3124 10.05L18.7842 16.3115L20.3942 10.05C20.4241 9.91448 20.4886 9.78906 20.5814 9.68598C20.6899 9.61725 20.8174 9.58477 20.9454 9.59323H21.8117C21.9604 9.59323 22.0444 9.66848 22.0444 9.82598C22.0444 9.87323 22.0339 9.92048 22.0269 9.97648C22.0119 10.0559 21.9896 10.1338 21.9604 10.2092L19.7152 17.4315C19.6592 17.6187 19.5944 17.7412 19.5209 17.7972C19.4153 17.8648 19.2909 17.8973 19.1657 17.89H18.3659C18.1892 17.89 18.0684 17.862 17.9932 17.7972C17.9179 17.7307 17.8532 17.61 17.8164 17.4227L16.3727 11.3975L14.9377 17.4157C14.8922 17.603 14.8362 17.7237 14.7627 17.7885C14.6874 17.855 14.5562 17.883 14.3899 17.883H13.5884V17.8812ZM25.5549 18.1332C25.0717 18.1339 24.59 18.0775 24.1199 17.9652C23.6544 17.8532 23.2922 17.7307 23.0489 17.5907C22.9002 17.5067 22.7987 17.414 22.7602 17.3282C22.7246 17.2459 22.7062 17.1572 22.7059 17.0675V16.5915C22.7059 16.3955 22.7794 16.301 22.9194 16.301C22.9766 16.3011 23.0333 16.3106 23.0874 16.329C23.1434 16.3482 23.2274 16.385 23.3202 16.4235C23.6352 16.5635 23.9817 16.6755 24.3439 16.7507C24.7167 16.8242 25.0789 16.8627 25.4517 16.8627C26.0397 16.8627 26.4947 16.7595 26.8115 16.5547C26.9636 16.4626 27.0886 16.3318 27.1738 16.1756C27.2589 16.0195 27.3012 15.8435 27.2962 15.6657C27.2993 15.5457 27.2787 15.4262 27.2354 15.3142C27.1922 15.2021 27.1272 15.0998 27.0442 15.013C26.8779 14.8345 26.5612 14.6752 26.1044 14.5265L24.7534 14.1065C24.0744 13.8912 23.5704 13.5727 23.2642 13.1527C22.9644 12.7646 22.8008 12.2886 22.7987 11.7982C22.7987 11.4062 22.8827 11.0597 23.0489 10.7605C23.2169 10.463 23.4409 10.2005 23.7209 9.99398C24.0009 9.78048 24.3159 9.62123 24.6887 9.50923C25.0614 9.39723 25.4517 9.34998 25.8612 9.34998C26.0677 9.34998 26.2812 9.35873 26.4859 9.38673C26.6994 9.41473 26.8954 9.45323 27.0914 9.49173C27.2769 9.53723 27.4554 9.58273 27.6217 9.64048C27.7897 9.69648 27.9192 9.75248 28.0137 9.80848C28.1236 9.86366 28.2194 9.94328 28.2937 10.0412C28.3536 10.1323 28.3825 10.2404 28.3759 10.3492V10.7885C28.3759 10.9845 28.3024 11.0877 28.1624 11.0877C28.0385 11.0736 27.9184 11.0355 27.8089 10.9757C27.2462 10.7262 26.6359 10.602 26.0204 10.6117C25.4902 10.6117 25.0702 10.6957 24.7814 10.8742C24.4927 11.0492 24.3439 11.3222 24.3439 11.7055C24.3439 11.9662 24.4367 12.1902 24.624 12.3687C24.8095 12.5455 25.1542 12.7222 25.6477 12.8815L26.9707 13.3015C27.6409 13.5167 28.1257 13.816 28.4144 14.1992C28.7032 14.5825 28.8415 15.0217 28.8415 15.5082C28.8415 15.9107 28.7592 16.273 28.5999 16.5915C28.4351 16.9111 28.2035 17.1915 27.9209 17.414C27.6322 17.6467 27.2874 17.8165 26.8867 17.9372C26.4667 18.0685 26.0292 18.1332 25.5549 18.1332Z" fill="url(#paint0_linear_509_119)"/>
<path fill-rule="evenodd" clip-rule="evenodd" d="M27.3136 20.9829C24.2511 23.2526 19.7991 24.4584 15.9719 24.4584C10.6081 24.4584 5.77463 22.4686 2.12413 19.1611C1.83538 18.8986 2.09613 18.5434 2.43913 18.7499C6.38888 21.0476 11.2591 22.4406 16.2991 22.4406C19.6959 22.4406 23.4304 21.7301 26.8674 20.2724C27.3801 20.0396 27.8176 20.6084 27.3136 20.9829Z" fill="#FF9900"/>
<path fill-rule="evenodd" clip-rule="evenodd" d="M28.5894 19.5252C28.1992 19.0229 26.0012 19.2837 25.0054 19.4044C24.7079 19.4429 24.6607 19.1804 24.9302 18.9844C26.6802 17.7507 29.5589 18.1059 29.8932 18.5172C30.2292 18.9372 29.8004 21.8247 28.1607 23.2072C27.9104 23.4224 27.6689 23.3122 27.7792 23.0322C28.1519 22.1047 28.9814 20.0222 28.5894 19.5269V19.5252Z" fill="#FF9900"/>
<defs>
<linearGradient id="paint0_linear_509_119" x1="15.9999" y1="9.34998" x2="15.9999" y2="20.203" gradientUnits="userSpaceOnUse">
<stop stop-color="white"/>
</linearGradient>
</defs>
</svg>
