<svg width="32" height="32" viewBox="0 0 32 32" fill="none" xmlns="http://www.w3.org/2000/svg">
<path d="M15.0724 23.721L20.9315 22.685L20.9857 22.6727L17.9722 19.087C16.9616 17.8911 15.9565 16.6906 14.9569 15.4855C14.9569 15.468 18.0702 6.89475 18.0877 6.865C19.8102 9.81381 21.5217 12.769 23.2222 15.7305L28.3847 24.6818L28.425 24.75L9.26595 24.7482L15.0724 23.721ZM3.57495 22.629C3.57495 22.6238 4.9942 20.158 6.7302 17.1497L9.8872 11.6775L13.5657 8.5905C15.5887 6.89475 17.2495 5.5 17.2547 5.5C17.2417 5.55177 17.2223 5.60174 17.197 5.64875L13.2 14.2167L9.27995 22.6307L6.42745 22.6343C4.8577 22.636 3.57495 22.6343 3.57495 22.629Z" fill="#0089D6"/>
</svg>
