<svg xmlns="http://www.w3.org/2000/svg" version="1.1" xmlns:xlink="http://www.w3.org/1999/xlink" width="201" height="201"><svg fill="none" xmlns="http://www.w3.org/2000/svg" viewBox="0 0 201 201"><path fill="#000" d="M.5.948h200v200H.5z"></path><path d="M121.15 40.312 97.964 53.715v21.7L79.197 64.56h-.01L56.822 77.492v71.159l22.362 12.933h.01l24.01-13.885v-20.748l17.956 10.374 23.185-13.403V53.715l-23.185-13.403h-.011Zm-59.097 40.21 17.121-9.892h.011l18.769 10.844v36.388L62.053 97.115V80.522Zm35.9 64.147-18.779 10.845-17.121-9.892v-42.448l35.9 20.748v20.747Zm41.142-23.788-17.945 10.374-17.945-10.363V84.504l35.901 20.747v15.63h-.011Zm0-21.689-35.901-20.747v-21.7L121.15 46.37l17.945 10.374v42.447Z" fill="#fff"></path></svg><style>@media (prefers-color-scheme: light) { :root { filter: none; } }
@media (prefers-color-scheme: dark) { :root { filter: none; } }
</style></svg>